<?xml version="1.0" standalone="no"?>
<!DOCTYPE svg PUBLIC "-//W3C//DTD SVG 1.1//EN" "http://www.w3.org/Graphics/SVG/1.1/DTD/svg11.dtd">

<svg width="800" height="600" version="1.1" xmlns="http://www.w3.org/2000/svg">
	<ellipse stroke="black" stroke-width="1" fill="none" cx="90.5" cy="123.5" rx="30" ry="30"/>
	<text x="39.5" y="129.5" font-family="Times New Roman" font-size="20">:align_to_hp</text>
	<ellipse stroke="black" stroke-width="1" fill="none" cx="305.5" cy="123.5" rx="30" ry="30"/>
	<text x="258.5" y="129.5" font-family="Times New Roman" font-size="20">:intake_tote</text>
	<ellipse stroke="black" stroke-width="1" fill="none" cx="457.5" cy="123.5" rx="30" ry="30"/>
	<text x="414.5" y="129.5" font-family="Times New Roman" font-size="20">:stack_tote</text>
	<ellipse stroke="black" stroke-width="1" fill="none" cx="612.5" cy="123.5" rx="30" ry="30"/>
	<text x="556.5" y="129.5" font-family="Times New Roman" font-size="20">:deliver_stack</text>
	<path stroke="black" stroke-width="1" fill="none" d="M 440.106,147.748 A 84.162,84.162 0 0 1 322.894,147.748"/>
	<polygon fill="black" stroke-width="1" points="440.106,147.748 430.882,149.73 437.846,156.907"/>
	<text x="320.5" y="192.5" font-family="Times New Roman" font-size="20">:cycle_elevator</text>
	<path stroke="black" stroke-width="1" fill="none" d="M 315.319,95.354 A 76.753,76.753 0 0 1 447.681,95.354"/>
	<polygon fill="black" stroke-width="1" points="315.319,95.354 323.682,90.988 315.059,85.924"/>
	<text x="346.5" y="48.5" font-family="Times New Roman" font-size="20">:hp_feed</text>
	<path stroke="black" stroke-width="1" fill="none" d="M 108.187,99.36 A 123.215,123.215 0 0 1 287.813,99.36"/>
	<polygon fill="black" stroke-width="1" points="287.813,99.36 285.981,90.106 278.692,96.952"/>
	<text x="163.5" y="51.5" font-family="Times New Roman" font-size="20">:hp_feed</text>
	<path stroke="black" stroke-width="1" fill="none" d="M 466.093,94.95 A 77.887,77.887 0 0 1 603.907,94.95"/>
	<polygon fill="black" stroke-width="1" points="603.907,94.95 604.602,85.542 595.755,90.203"/>
	<text x="511.5" y="44.5" font-family="Times New Roman" font-size="20">:drive</text>
	<path stroke="black" stroke-width="1" fill="none" d="M 458.845,153.437 A 184.966,184.966 0 0 1 89.155,153.437"/>
	<polygon fill="black" stroke-width="1" points="89.155,153.437 84.448,161.613 94.441,161.251"/>
	<text x="227.5" y="352.5" font-family="Times New Roman" font-size="20">:drop_stack</text>
	<path stroke="black" stroke-width="1" fill="none" d="M 593.539,146.735 A 324.988,324.988 0 0 1 109.461,146.735"/>
	<polygon fill="black" stroke-width="1" points="109.461,146.735 111.076,156.029 118.523,149.356"/>
	<text x="304.5" y="275.5" font-family="Times New Roman" font-size="20">:drop_stack</text>
	<path stroke="black" stroke-width="1" fill="none" d="M 278.227,135.946 A 226.587,226.587 0 0 1 117.773,135.946"/>
	<polygon fill="black" stroke-width="1" points="117.773,135.946 123.484,143.454 127.025,134.102"/>
	<text x="151.5" y="171.5" font-family="Times New Roman" font-size="20">:drop_stack</text>
</svg>
